<svg width="170" height="124" viewBox="0 0 170 124" fill="none" xmlns="http://www.w3.org/2000/svg">
<path d="M158.823 90.1447C158.823 90.1447 153.18 94.3409 152.079 94.0872C150.979 93.8322 156.203 89.5568 156.203 89.5568C154.238 88.6111 148.126 89.204 148.126 89.204C148.126 89.204 146.089 95.7681 145.086 95.2507C144.082 94.7333 147.185 89.5296 147.185 89.5296C144.995 89.3971 142.309 91.0236 142.309 91.0236C138.633 93.9275 142.55 98.4987 142.55 98.4987C142.55 98.4987 141.795 100.759 139.475 102.816C139.475 102.816 136.158 105.268 135.928 109.65L136.53 109.705C136.53 109.705 137.484 105.624 139.218 103.693C139.285 103.623 139.384 103.522 139.504 103.4C139.786 103.139 139.985 102.942 140.118 102.796C140.981 101.967 142.174 100.911 142.749 100.808C142.749 100.808 142.72 100.703 142.724 100.519C142.731 100.612 142.74 100.707 142.749 100.808C142.945 103.118 147.427 105.137 150.185 105.552C152.943 105.966 152.09 104.834 151.14 103.153C150.189 101.472 147.182 100.721 146.497 99.9457C145.811 99.1721 147.229 99.1696 148.891 99.9284C150.552 100.687 150.779 102.711 153.444 103.987C156.109 105.263 160.12 100.841 160.12 100.841C157.996 100.733 154.962 98.4257 155.072 97.7201C155.182 97.0146 160.221 98.9381 161.083 99.0297C161.944 99.1226 163.904 98.0506 164.207 94.581C164.51 91.1115 158.823 90.1435 158.823 90.1435V90.1447Z" fill="#82B378"/>
<path d="M128.851 92.7505C128.851 92.7505 135.085 89.2599 132.176 84.5228C132.176 84.5228 129.849 81.614 127.356 80.8664C127.356 80.8664 128.685 87.9305 127.356 88.0964C126.027 88.2623 126.443 80.1175 126.443 80.1175C126.443 80.1175 119.877 76.9598 117.3 77.2086C117.3 77.2086 121.373 84.1069 120.043 83.9398C118.714 83.774 114.143 76.7927 114.143 76.7927C114.143 76.7927 107.411 75.5463 106.331 79.5357C105.25 83.5252 106.995 85.5193 107.993 85.7681C108.991 86.0169 115.389 85.9339 115.223 86.7657C115.057 87.5963 110.735 88.927 108.325 88.1781C108.325 88.1781 110.984 94.7434 114.474 94.4117C117.965 94.0787 119.045 91.9187 121.205 91.7516C123.367 91.5858 124.945 92.1675 123.864 92.7493C122.784 93.3311 119.127 92.9399 117.382 94.4241C115.637 95.9082 114.224 96.8217 117.465 97.4864C120.707 98.1511 126.523 97.7352 127.687 95.2423L128.85 92.7493L128.851 92.7505Z" fill="#A8D29F"/>
<path d="M130.514 98.8168C128.769 95.5762 128.851 92.7503 128.851 92.7503C126.857 86.4338 109.404 80.7832 109.404 80.7832C131.594 89.7585 127.688 95.2433 127.688 95.2433C128.286 95.5923 129.182 97.2559 129.805 98.5321C129.894 98.7487 130.034 99.0495 130.242 99.458C130.326 99.6424 130.394 99.7934 130.441 99.8987C131.583 102.757 130.978 107.694 130.978 107.694L131.67 107.88C133.205 102.905 130.513 98.818 130.513 98.818L130.514 98.8168Z" fill="#82B378"/>
<path d="M138.768 87.9358C138.768 87.9358 130.551 83.3349 134.386 77.0902C134.386 77.0902 137.453 73.2554 140.74 72.2702C140.74 72.2702 138.987 81.5822 140.74 81.8013C142.492 82.0204 141.945 71.2849 141.945 71.2849C141.945 71.2849 150.6 67.1221 153.995 67.4501C153.995 67.4501 148.627 76.5431 150.38 76.324C152.132 76.1049 158.158 66.903 158.158 66.903C158.158 66.903 167.032 65.2605 168.455 70.5187C169.88 75.7769 167.579 78.406 166.264 78.7352C164.95 79.0632 156.514 78.9543 156.733 80.0498C156.952 81.1452 162.649 82.898 165.826 81.9127C165.826 81.9127 162.321 90.5674 157.72 90.1292C153.119 89.691 151.694 86.8429 148.846 86.6238C145.998 86.4047 143.916 87.1709 145.34 87.9383C146.764 88.7058 151.585 88.1896 153.885 90.1453C156.186 92.1011 158.048 93.3067 153.775 94.183C149.502 95.0594 141.834 94.5111 140.3 91.2247L138.766 87.9383L138.768 87.9358Z" fill="#A8D29F"/>
<path d="M164.402 72.1592C164.402 72.1592 141.396 79.6083 138.767 87.935C138.767 87.935 138.878 91.6596 136.576 95.9325C136.576 95.9325 133.029 101.321 135.051 107.879L135.964 107.633C135.964 107.633 135.165 101.126 136.672 97.3585C136.734 97.2198 136.823 97.0205 136.934 96.7779C137.209 96.2395 137.395 95.8434 137.511 95.5574C138.332 93.8753 139.513 91.6831 140.301 91.2226C140.301 91.2226 135.152 83.9926 164.402 72.1604V72.1592Z" fill="#82B378"/>
<path d="M122.396 106.005C122.396 114.894 129.602 122.099 138.49 122.099C147.379 122.099 154.584 114.894 154.584 106.005H122.395H122.396Z" fill="#F1A34F"/>
<path d="M152.821 121.11H124.159C123.062 121.11 122.173 121.999 122.173 123.096H154.807C154.807 121.999 153.918 121.11 152.821 121.11Z" fill="#F1A34F"/>
<path d="M154.705 106.499H122.114C121.978 106.499 121.868 106.389 121.868 106.251C121.868 106.115 121.978 106.005 122.114 106.005H154.705C154.841 106.005 154.951 106.115 154.951 106.251C154.951 106.387 154.841 106.499 154.705 106.499Z" fill="#D86713"/>
<path d="M70.0818 4.4834H126.195C127.96 4.4834 129.394 5.91677 129.394 7.68189V119.896C129.394 121.662 127.96 123.095 126.195 123.095H70.0818C68.3167 123.095 66.8833 121.662 66.8833 119.896V7.68189C66.8833 5.91677 68.3167 4.4834 70.0818 4.4834Z" fill="#17D1E0"/>
<path d="M76.1404 4.4834H132.254C134.019 4.4834 135.452 5.91677 135.452 7.68189V119.896C135.452 121.662 134.019 123.095 132.254 123.095H76.1404C74.3753 123.095 72.9419 121.662 72.9419 119.896V7.68189C72.9419 5.91677 74.3753 4.4834 76.1404 4.4834Z" fill="black"/>
<path d="M133.086 13.9668H75.1777V110.08H133.086V13.9668Z" fill="white"/>
<path d="M97.1091 8.97363H113.359C113.707 8.97363 113.992 9.25833 113.992 9.60616C113.992 9.95398 113.707 10.2387 113.359 10.2387H97.1091C96.7613 10.2387 96.4766 9.95398 96.4766 9.60616C96.4766 9.25833 96.7613 8.97363 97.1091 8.97363Z" fill="#17D1E0"/>
<path d="M94.2228 8.97363C94.5707 8.97363 94.8554 9.25833 94.8554 9.60616C94.8554 9.95398 94.5707 10.2387 94.2228 10.2387C93.875 10.2387 93.5903 9.95398 93.5903 9.60616C93.5903 9.25833 93.875 8.97363 94.2228 8.97363Z" fill="#17D1E0"/>
<path d="M107.279 118.116C107.69 116.376 106.612 114.632 104.872 114.221C103.131 113.81 101.387 114.888 100.976 116.629C100.565 118.369 101.643 120.113 103.384 120.524C105.124 120.935 106.868 119.857 107.279 118.116Z" fill="#17D1E0"/>
<path d="M7.96616 123.019C7.96616 123.019 2.74014 123.208 1.96651 123.019C1.93433 122.874 0.968839 116.779 0.968839 116.779L0.1655 111.143C0.0528601 110.356 0.994834 109.835 1.58032 110.375C1.86749 110.64 2.13362 111.024 2.31929 111.583C2.97656 113.568 4.91497 116.765 7.79163 117.6C10.8181 118.477 7.96739 123.018 7.96739 123.018L7.96616 123.019Z" fill="black"/>
<path d="M35.2188 94.7649L34.7051 94.9469C34.7051 94.9469 33.3596 92.6705 30.6092 93.5915C30.6092 93.5915 29.5101 94.0507 30.1624 94.6523C30.8135 95.2538 30.6526 94.9419 31.5525 95.8071C32.4523 96.6724 33.6802 97.1056 34.5269 96.8135L35.4652 96.483L35.2188 94.7637V94.7649Z" fill="#E49963"/>
<path d="M58.3941 113.824C58.3941 113.824 39.2192 99.1722 33.7642 99.0125C28.3092 98.8528 10.6147 123.071 10.6147 123.071H17.2407C17.2407 123.071 28.9157 116.857 33.0228 110.952C33.4362 110.358 34.32 110.385 34.7037 110.998C36.8265 114.391 42.3781 122.713 45.9665 123.071C49.8198 123.455 58.3941 113.824 58.3941 113.824Z" fill="black"/>
<path d="M56.5586 73.9576C56.5586 73.9576 56.6799 74.9181 56.8359 76.1027C57.0438 77.6425 57.3198 79.5537 57.5018 80.1503L63.2712 81.6122L63.6945 77.4172C63.6945 77.4172 62.25 74.5195 62.2587 70.4199L56.5586 73.9576Z" fill="#FFB27D"/>
<path d="M61.5766 82.6899L53.3786 92.7322L50.5119 96.2439C50.5119 96.2439 45.3775 97.2056 42.6815 97.4396C40.7357 97.6079 34.5269 96.8157 34.5269 96.8157L34.7051 94.9491C34.7051 94.9491 38.5584 93.3102 40.3891 92.9265C42.257 92.5354 46.9742 91.4709 46.9742 91.4709C48.7579 90.8223 55.5374 82.0586 55.5374 82.0586L61.5766 82.6911V82.6899Z" fill="#82B378"/>
<path d="M66.9249 118.548L50.1588 117.18C50.1588 117.18 50.113 116.844 50.0351 116.28C50.0103 116.105 49.9979 115.923 49.993 115.733C49.9546 114.058 50.6131 111.8 50.8966 109.581C51.0835 108.115 51.1082 106.667 50.6601 105.414C50.144 103.97 49.9063 101.226 49.8011 98.6177C49.6687 95.3511 49.7454 92.2987 49.7442 92.2776C49.5758 90.1969 50.0709 87.8871 50.899 85.6913C52.5342 81.3602 55.5841 78.9081 57.0163 77.4537C57.0163 77.4537 58.7665 77.8857 63.3142 76.5216C63.4492 76.4808 63.8391 77.0539 64.0136 77.3868C64.0136 77.3868 65.9817 79.8773 66.7912 85.9512C67.5154 91.3877 66.9262 118.549 66.9262 118.549L66.9249 118.548Z" fill="#A8D29F"/>
<path d="M62.7302 88.4431C62.6967 89.2055 55.9507 110.68 56.7775 112.263C60.7781 119.927 50.6937 116.474 50.1466 114.498C50.3335 113.032 51.1084 106.666 50.6603 105.413C50.1441 103.969 49.9065 101.225 49.8013 98.6166C49.9696 97.6647 50.3657 96.6831 50.8992 95.7325C53.4058 95.3401 62.9814 82.5301 62.7302 88.4418V88.4431Z" fill="#82B378"/>
<path d="M29.1981 92.6305L31.2776 91.2021C31.2949 91.1897 31.3135 91.181 31.3333 91.1736H31.3345L31.7269 91.0127L33.6406 97.0544L31.967 98.4086L31.6662 98.5398H31.6625C31.5264 98.5955 31.3543 98.5076 31.2813 98.3306L29.1151 93.0229C29.0532 92.8706 29.0891 92.7048 29.1993 92.6293L29.1981 92.6305Z" fill="#373480"/>
<path d="M34.0675 96.6983L32.0833 98.3594C31.9434 98.477 31.7256 98.3903 31.6414 98.1861L29.4753 92.8784C29.4134 92.7261 29.448 92.5603 29.5594 92.4848L31.639 91.0563C31.7813 90.9586 31.9831 91.0489 32.0635 91.2433L34.1344 96.3183C34.1925 96.4606 34.1653 96.6178 34.0675 96.6995V96.6983Z" fill="#575B9F"/>
<path d="M33.7456 96.0465L31.7911 97.6829L29.8267 92.869L31.8752 91.4629L33.7456 96.0465Z" fill="#E2E7F2"/>
<path d="M32.9746 97.153C32.9473 97.0564 32.9857 96.9537 33.0612 96.9227C33.1367 96.8918 33.2184 96.9463 33.2457 97.0428C33.2729 97.1394 33.2345 97.2433 33.159 97.273C33.0847 97.304 33.0018 97.2495 32.9746 97.153Z" fill="#373480"/>
<path d="M30.124 92.9576L31.7864 91.7842L33.5107 95.9185L31.8173 97.238L30.124 92.9576Z" fill="#CED4EA"/>
<path d="M30.5581 93.2067L31.7229 92.3848L32.931 95.2812L31.7439 96.2059L30.5581 93.2067Z" fill="#BCC5DD"/>
<path d="M34.9772 97.6934L33.9226 97.6587C33.9226 97.6587 32.8717 95.4789 30.4654 96.5125C30.4654 96.5125 29.4999 97.0163 30.0322 97.5783C30.5644 98.1402 30.4406 97.8407 31.1734 98.6514C31.9062 99.4622 32.9422 99.8323 33.6825 99.5055L34.5044 99.1367L34.9772 97.6934Z" fill="#E49963"/>
<path d="M61.1718 77.4902C61.1718 77.4902 57.0561 79.2281 54.9184 82.9428C53.4937 85.4184 51.0404 89.6294 49.5624 92.1632C48.7752 93.5124 47.4594 94.4705 45.9344 94.8059L40.9399 95.9051L33.924 97.659C33.924 97.659 33.7581 97.9561 33.799 98.4426C33.8559 99.1333 34.3077 99.2719 34.3077 99.2719C34.3077 99.2719 40.8582 100.849 43.1902 101.023C48.9348 101.455 51.658 100.703 52.5022 100.392C52.6904 100.323 52.8587 100.223 53.0147 100.096C53.8947 99.3808 57.2702 96.5537 59.0477 93.8516C60.7769 91.2225 65.5437 84.3922 65.5437 84.3922L61.173 77.4915L61.1718 77.4902Z" fill="#A8D29F"/>
<path d="M67.0404 112.062C67.0404 112.062 68.6941 123.072 63.624 123.072H7.82622C7.82622 123.072 6.28515 122.031 6.17746 120.049C6.06234 117.946 6.72704 117.202 6.72704 117.202C6.72704 117.202 26.7015 116.506 30.7566 115.147C51.0838 108.335 67.0404 112.062 67.0404 112.062Z" fill="#0B0F13"/>
<path d="M56.5586 73.9576C56.5586 73.9576 56.6799 74.9181 56.8359 76.1027C62.1659 74.548 62.2587 70.4199 62.2587 70.4199L56.5586 73.9576Z" fill="#E8945B"/>
<path d="M55.721 74.2648C55.721 74.2648 62.1996 74.4567 62.2578 70.4202C62.3148 66.3837 63.1899 63.689 59.0556 63.3969C54.9213 63.1035 54.0957 64.6322 53.7491 65.9752C53.4025 67.3183 54.0375 74.1113 55.721 74.2661V74.2648Z" fill="#FFB27D"/>
<path d="M62.3726 72.0005C62.3726 72.0005 61.6881 71.8867 61.7983 70.9434C61.9084 70.0002 61.9072 68.7674 61.141 68.9976C60.3748 69.2278 60.3364 69.8418 60.0208 69.4828C59.7064 69.1239 59.7002 67.6137 57.4189 67.5085C55.1376 67.4033 54.2105 68.198 53.1497 67.7313C52.0889 67.2647 52.0332 65.6593 52.0332 65.6593C52.0332 65.6593 52.3352 66.2324 52.7907 66.4156C52.7907 66.4156 51.0207 63.9944 53.0705 62.3357C55.1191 60.6758 57.2085 61.7626 58.3943 61.8344C61.0073 61.9929 62.6944 62.1488 63.5485 63.8657C64.4026 65.5825 64.0498 70.3493 62.3738 72.0018L62.3726 72.0005Z" fill="black"/>
<path d="M120.834 46.3428H87.4306C86.1953 46.3428 85.1938 47.3442 85.1938 48.5795V69.2471C85.1938 70.4825 86.1953 71.4839 87.4306 71.4839H120.834C122.069 71.4839 123.071 70.4825 123.071 69.2471V48.5795C123.071 47.3442 122.069 46.3428 120.834 46.3428Z" fill="#17D1E0"/>
<path d="M117.317 39.0371H86.8052V54.6186H117.317V39.0371Z" fill="#82B378"/>
<path d="M117.154 38.8057H86.6426V54.3872H117.154V38.8057Z" fill="#82B378"/>
<path d="M116.938 38.6035H86.4263V54.185H116.938V38.6035Z" fill="#82B378"/>
<path d="M116.729 38.4131H86.2168V53.9946H116.729V38.4131Z" fill="#A8D29F"/>
<path d="M87.4102 39.582V52.8266H115.536V39.582H87.4102ZM114.47 51.8004H88.4759V40.6082H114.47V51.8004Z" fill="#82B378"/>
<path d="M87.4099 39.582V42.5936C87.6265 42.6555 87.8543 42.6914 88.0907 42.6914C89.4461 42.6914 90.5453 41.5922 90.5453 40.2368C90.5453 40.0091 90.5119 39.7912 90.4537 39.582H87.4087H87.4099Z" fill="#82B378"/>
<path d="M115.535 39.5686H112.523C112.461 39.7852 112.425 40.013 112.425 40.2494C112.425 41.6048 113.524 42.704 114.879 42.704C115.106 42.704 115.325 42.6706 115.534 42.6124V39.5674L115.535 39.5686Z" fill="#82B378"/>
<path d="M115.535 52.8258H112.523C112.461 52.6092 112.425 52.3814 112.425 52.145C112.425 50.7896 113.524 49.6904 114.879 49.6904C115.106 49.6904 115.325 49.7238 115.534 49.782V52.827L115.535 52.8258Z" fill="#82B378"/>
<path d="M87.4099 52.8137V49.8009C87.6265 49.739 87.8543 49.7031 88.0907 49.7031C89.4461 49.7031 90.5453 50.8023 90.5453 52.1577C90.5453 52.3842 90.5119 52.6033 90.4537 52.8125H87.4087L87.4099 52.8137Z" fill="#82B378"/>
<path d="M104.774 46.2045C104.774 48.0278 103.296 49.5058 101.473 49.5058C99.6493 49.5058 98.1714 48.0278 98.1714 46.2045C98.1714 44.3813 99.6493 42.9033 101.473 42.9033C103.296 42.9033 104.774 44.3813 104.774 46.2045Z" fill="#82B378"/>
<path d="M112.418 41.7044C108.982 42.1339 106.545 45.268 106.974 48.7042C107.404 52.1403 110.538 54.5775 113.974 54.148C117.41 53.7185 119.848 50.5844 119.418 47.1482C118.989 43.7121 115.854 41.2748 112.418 41.7044Z" fill="#E2810E"/>
<path d="M111.875 41.7717C108.439 42.2013 106.001 45.3354 106.431 48.7715C106.86 52.2077 109.995 54.6449 113.431 54.2154C116.867 53.7859 119.304 50.6518 118.875 47.2156C118.445 43.7795 115.311 41.3422 111.875 41.7717Z" fill="#FFB93E"/>
<path d="M113.37 53.7362C110.245 54.1273 107.383 51.9017 106.993 48.775C106.602 45.6496 108.827 42.789 111.954 42.3991C115.079 42.0079 117.94 44.2335 118.33 47.359C118.721 50.4844 116.495 53.3462 113.37 53.7362ZM111.996 42.737C109.056 43.1046 106.963 45.7944 107.331 48.7329C107.698 51.6727 110.389 53.7646 113.328 53.3982C116.268 53.0306 118.36 50.3409 117.992 47.4011C117.624 44.4613 114.935 42.3694 111.996 42.737Z" fill="#FFA412"/>
<path d="M113.648 49.6155C113.648 49.4917 113.629 49.3827 113.593 49.2874C113.557 49.1934 113.5 49.1079 113.42 49.0312C113.339 48.9545 113.237 48.8851 113.11 48.8208C112.984 48.7564 112.831 48.6945 112.649 48.6326C112.337 48.5249 112.052 48.4123 111.797 48.2947C111.542 48.1771 111.323 48.0397 111.141 47.885C110.959 47.729 110.817 47.5471 110.715 47.3379C110.614 47.1287 110.562 46.8799 110.561 46.5903C110.559 46.339 110.601 46.11 110.689 45.902C110.777 45.6941 110.903 45.5134 111.068 45.3586C111.233 45.2039 111.429 45.0777 111.66 44.9811C111.89 44.8846 112.147 44.8202 112.433 44.793L112.427 43.8448L113.191 43.8398L113.197 44.8016C113.471 44.835 113.719 44.9068 113.942 45.0145C114.165 45.1222 114.356 45.2633 114.513 45.4366C114.67 45.6099 114.791 45.8154 114.877 46.053C114.962 46.2907 115.007 46.5568 115.008 46.8514L113.629 46.8601C113.627 46.5061 113.546 46.2412 113.388 46.0667C113.229 45.8921 113.018 45.8055 112.754 45.8067C112.61 45.8067 112.488 45.8278 112.385 45.8686C112.282 45.9095 112.197 45.9639 112.131 46.0345C112.064 46.1038 112.016 46.1867 111.985 46.2808C111.954 46.3761 111.938 46.4776 111.939 46.5865C111.941 46.6955 111.957 46.7945 111.989 46.8836C112.021 46.9715 112.077 47.0532 112.155 47.1287C112.233 47.203 112.337 47.2735 112.467 47.3391C112.595 47.4047 112.756 47.4728 112.947 47.5421C113.256 47.656 113.537 47.7724 113.791 47.8912C114.045 48.0113 114.263 48.1486 114.445 48.3059C114.627 48.4631 114.769 48.6462 114.871 48.8554C114.972 49.0646 115.024 49.3122 115.025 49.5994C115.027 49.8593 114.983 50.0932 114.894 50.3C114.805 50.5079 114.677 50.6874 114.513 50.8384C114.348 50.9907 114.15 51.112 113.916 51.206C113.683 51.2989 113.424 51.3595 113.138 51.388L113.143 52.2693L112.384 52.2743L112.379 51.3967C112.114 51.3719 111.859 51.3162 111.613 51.2283C111.365 51.1417 111.146 51.0154 110.954 50.8495C110.762 50.6837 110.609 50.4745 110.492 50.2207C110.376 49.967 110.317 49.6637 110.315 49.3085L111.694 49.2998C111.696 49.509 111.727 49.6848 111.786 49.8246C111.845 49.9645 111.925 50.0759 112.024 50.1601C112.123 50.2443 112.235 50.3024 112.362 50.3359C112.488 50.3693 112.615 50.3854 112.745 50.3841C112.895 50.3841 113.026 50.3631 113.139 50.3247C113.251 50.2863 113.346 50.2319 113.422 50.1638C113.498 50.0957 113.555 50.014 113.593 49.9212C113.63 49.8284 113.649 49.7269 113.649 49.6167L113.648 49.6155Z" fill="#FFA412"/>
<path d="M87.4306 48.3096H118.358C119.592 48.3096 120.595 49.3122 120.595 50.5463V71.2139C120.595 72.448 119.592 73.4507 118.358 73.4507H87.4306C86.1965 73.4507 85.1938 72.448 85.1938 71.2139V50.5463C85.1938 49.3122 86.1965 48.3096 87.4306 48.3096Z" fill="#699FF0"/>
<path d="M121.647 64.3161H110.661C108.764 64.3161 107.227 62.7788 107.227 60.8812C107.227 58.9836 108.764 57.4463 110.661 57.4463H121.647V64.3161Z" fill="#17D1E0"/>
<path d="M110.662 63.5729C112.149 63.5729 113.354 62.3676 113.354 60.8807C113.354 59.3938 112.149 58.1885 110.662 58.1885C109.175 58.1885 107.97 59.3938 107.97 60.8807C107.97 62.3676 109.175 63.5729 110.662 63.5729Z" fill="#E9F3FE"/>
<path d="M54.9242 33.1012C54.6891 33.1309 54.4551 33.1606 54.2249 33.1878C53.96 33.22 53.7199 33.0318 53.6877 32.7669C53.6555 32.5033 53.8424 32.2644 54.1048 32.231C54.1048 32.231 54.1073 32.231 54.1085 32.231C54.5244 32.1802 54.9478 32.127 55.3785 32.0688C55.3785 32.0688 55.3798 32.0688 55.381 32.0688C55.6434 32.0354 55.8848 32.2198 55.9194 32.4835C55.9541 32.7471 55.7697 32.9897 55.5048 33.0256C55.3092 33.0516 55.1149 33.0776 54.923 33.1012H54.9242ZM56.7785 32.8474C56.5185 32.8808 56.2784 32.6989 56.24 32.4377C56.2017 32.174 56.3849 31.9302 56.6485 31.8918C57.0657 31.8312 57.489 31.768 57.9173 31.7024C58.1846 31.6603 58.4272 31.8423 58.4681 32.106C58.5089 32.3696 58.3282 32.6159 58.0658 32.6555C57.6338 32.7224 57.208 32.7867 56.7884 32.8474C56.7859 32.8474 56.7834 32.8474 56.781 32.8474H56.7785ZM52.9499 33.3326C52.9499 33.3326 52.9425 33.3326 52.94 33.3339C52.5031 33.3809 52.0699 33.423 51.6527 33.4601C51.3878 33.4836 51.1527 33.2881 51.1291 33.0232C51.1056 32.7583 51.3024 32.5268 51.5661 32.4996C51.9783 32.4624 52.4066 32.4204 52.8385 32.3746C53.1034 32.3461 53.3411 32.5379 53.3696 32.8028C53.398 33.064 53.2111 33.2992 52.9512 33.3326H52.9499ZM59.3234 32.4538C59.0672 32.4872 58.8283 32.3102 58.7862 32.0527C58.7429 31.7903 58.9211 31.5415 59.1848 31.4994C59.6019 31.4314 60.024 31.3608 60.4511 31.2878C60.7098 31.242 60.9635 31.419 61.0081 31.6814C61.0526 31.9438 60.8769 32.1938 60.6144 32.2384C60.1849 32.3114 59.7604 32.3832 59.3407 32.4513C59.3346 32.4513 59.3296 32.4525 59.3234 32.4538ZM50.3889 33.5604C50.3803 33.5604 50.3704 33.5629 50.3605 33.5629C49.9161 33.5938 49.4804 33.6198 49.0657 33.6384C48.7996 33.6507 48.5743 33.4453 48.5619 33.1791C48.5495 32.913 48.755 32.6877 49.0211 32.6753C49.4284 32.6568 49.8567 32.632 50.2936 32.6011C50.5597 32.5825 50.79 32.783 50.8085 33.0479C50.8259 33.3041 50.6402 33.5282 50.3889 33.5604ZM61.8609 32.0181C61.6072 32.0503 61.3707 31.8782 61.3249 31.6244C61.2779 31.362 61.4524 31.112 61.7149 31.065C62.132 30.9907 62.5529 30.9139 62.9787 30.8347C63.2411 30.7852 63.4923 30.9585 63.5406 31.2209C63.5889 31.4833 63.4168 31.7346 63.1544 31.7829C62.7274 31.8621 62.304 31.9388 61.8844 32.0144C61.877 32.0156 61.8683 32.0168 61.8609 32.0181ZM47.8192 33.6755C47.8019 33.678 47.7833 33.6792 47.7648 33.6792C47.313 33.6866 46.8736 33.6854 46.4601 33.6767C46.194 33.6705 45.9823 33.4502 45.9885 33.1841C45.9947 32.918 46.215 32.7063 46.4812 32.7125C46.8822 32.7211 47.3093 32.7224 47.7487 32.715C48.0148 32.71 48.2339 32.9229 48.2389 33.189C48.2426 33.4366 48.0594 33.6445 47.818 33.6755H47.8192ZM64.3922 31.5477C64.1422 31.5799 63.9058 31.4115 63.8575 31.1603C63.8067 30.8991 63.9788 30.6466 64.24 30.5958C64.6571 30.5154 65.0767 30.4337 65.5013 30.3507C65.765 30.2988 66.0162 30.4696 66.0682 30.7308C66.1202 30.9919 65.9494 31.2457 65.6882 31.2977C65.2624 31.3818 64.8403 31.4635 64.4219 31.544C64.412 31.5465 64.4021 31.5477 64.3922 31.5489V31.5477ZM66.9174 31.0489C66.6686 31.0811 66.4346 30.9152 66.3839 30.6664C66.3306 30.4052 66.5002 30.1515 66.7602 30.0982C67.1773 30.0141 67.5969 29.9274 68.019 29.8395C68.2814 29.7851 68.5352 29.9534 68.5896 30.2133C68.6441 30.4745 68.4758 30.7295 68.2158 30.784C67.7925 30.8719 67.3704 30.9585 66.9533 31.0439C66.9421 31.0464 66.9297 31.0476 66.9186 31.0501L66.9174 31.0489ZM69.4375 30.5253C69.1912 30.5562 68.9573 30.3941 68.9053 30.1465C68.8496 29.8866 69.0167 29.6303 69.2766 29.5746C69.6938 29.4868 70.1121 29.3964 70.533 29.3048C70.7917 29.2479 71.0504 29.4137 71.1061 29.6737C71.163 29.9336 70.9972 30.1911 70.7372 30.2468C70.3151 30.3384 69.8943 30.4287 69.4771 30.5166C69.4635 30.5191 69.4511 30.5216 69.4375 30.5228V30.5253ZM45.2483 33.6124C45.2161 33.6161 45.1839 33.6173 45.1505 33.6148C44.6839 33.5802 44.242 33.5319 43.836 33.4713C43.5723 33.4316 43.3916 33.1866 43.4312 32.9229C43.4708 32.6593 43.7159 32.4773 43.9796 32.5169C44.3608 32.5738 44.7792 32.6196 45.2223 32.6518C45.4884 32.6716 45.6877 32.9031 45.6679 33.168C45.6506 33.4007 45.4711 33.5827 45.2483 33.6111V33.6124ZM71.954 29.9806C71.7089 30.0116 71.4762 29.8519 71.423 29.6068C71.366 29.3469 71.5294 29.0894 71.7894 29.0325C72.2053 28.9409 72.6236 28.8468 73.0433 28.7527C73.3044 28.6946 73.5607 28.8579 73.6201 29.1179C73.6782 29.3778 73.5149 29.6353 73.2549 29.6935C72.8341 29.7888 72.4145 29.8816 71.9973 29.9732C71.9825 29.9769 71.9688 29.9794 71.954 29.9806ZM74.4655 29.4162C74.2216 29.4471 73.9902 29.2887 73.9345 29.0449C73.8751 28.7849 74.0372 28.5262 74.2972 28.4668C74.7131 28.3715 75.1302 28.2762 75.5498 28.1784C75.8098 28.1177 76.0685 28.2799 76.1279 28.5386C76.1885 28.7985 76.0264 29.0572 75.7664 29.1179C75.3456 29.2157 74.9272 29.311 74.5101 29.4063C74.494 29.41 74.4791 29.4125 74.463 29.415L74.4655 29.4162ZM76.9733 28.8357C76.7319 28.8666 76.5005 28.7106 76.4435 28.468C76.3829 28.2093 76.5438 27.9494 76.8025 27.8887C77.2184 27.791 77.6355 27.6919 78.0539 27.5929C78.3138 27.531 78.5725 27.6919 78.6344 27.9506C78.6963 28.2093 78.5366 28.4693 78.2767 28.5312C77.8571 28.6314 77.4387 28.7305 77.0228 28.8282C77.0067 28.832 76.9894 28.8357 76.9733 28.8369V28.8357ZM42.7121 33.2138C42.6502 33.2212 42.587 33.2175 42.5239 33.2002C42.03 33.064 41.5943 32.8969 41.2279 32.7026C40.9927 32.5776 40.9036 32.2854 41.0274 32.0502C41.1524 31.8151 41.4445 31.7259 41.6797 31.8497C41.9842 32.0106 42.3531 32.1518 42.7789 32.2693C43.0364 32.3399 43.1874 32.6048 43.1168 32.8622C43.0636 33.0553 42.9002 33.189 42.7133 33.2126L42.7121 33.2138ZM79.4774 28.239C79.236 28.27 79.0058 28.1153 78.9476 27.8739C78.8845 27.6152 79.0441 27.354 79.3028 27.2921C79.7175 27.1919 80.1347 27.0904 80.553 26.9889C80.8117 26.9257 81.0729 27.0842 81.136 27.3429C81.1992 27.6016 81.0407 27.8628 80.782 27.9259C80.3636 28.0274 79.9465 28.1289 79.5306 28.2291C79.5133 28.2341 79.4959 28.2366 79.4786 28.239H79.4774ZM81.9777 27.6288C81.7376 27.6598 81.5086 27.5063 81.4492 27.2661C81.3848 27.0074 81.5433 26.7462 81.802 26.6819C82.2166 26.5791 82.6325 26.4764 83.0497 26.3724C83.3071 26.3081 83.5696 26.4653 83.6339 26.724C83.6983 26.9827 83.5411 27.2438 83.2824 27.3082C82.8652 27.4122 82.4481 27.5162 82.0322 27.6189C82.0136 27.6239 81.9951 27.6263 81.9777 27.6288ZM84.4756 27.0062C84.2367 27.0371 84.0077 26.8849 83.9471 26.646C83.8815 26.3873 84.0387 26.1261 84.2974 26.0605C84.7121 25.9565 85.128 25.8513 85.5439 25.7449C85.8026 25.6793 86.065 25.8352 86.1306 26.0927C86.1962 26.3514 86.0402 26.6138 85.7815 26.6794C85.3644 26.7859 84.9485 26.8911 84.5326 26.9951C84.514 27 84.4942 27.0037 84.4756 27.0062ZM86.9698 26.3724C86.7322 26.4034 86.5032 26.2524 86.4425 26.0135C86.3769 25.756 86.5316 25.4924 86.7903 25.4268C87.205 25.3203 87.6197 25.2126 88.0356 25.1062C88.293 25.0393 88.5567 25.194 88.6235 25.4527C88.6904 25.7102 88.5356 25.9739 88.2769 26.0407C87.861 26.1484 87.4451 26.2561 87.0292 26.3625C87.0094 26.3675 86.9896 26.3712 86.9698 26.3737V26.3724ZM89.4578 25.7288C89.2214 25.7597 88.9924 25.6099 88.9305 25.3723C88.8637 25.1148 89.0172 24.8512 89.2759 24.7843C89.6893 24.6766 90.1039 24.5677 90.5174 24.4588C90.7748 24.3919 91.0385 24.5454 91.1066 24.8029C91.1746 25.0604 91.0199 25.324 90.7625 25.3921C90.3478 25.501 89.9331 25.6099 89.5185 25.7176C89.4987 25.7226 89.4776 25.7263 89.4578 25.73V25.7288ZM40.5335 31.9488C40.3639 31.9698 40.1894 31.9017 40.0817 31.7532C40.0532 31.7136 40.026 31.674 40 31.6331C39.7624 31.2605 39.568 30.8842 39.4207 30.5129C39.3229 30.2653 39.4442 29.9856 39.6918 29.8878C39.9394 29.79 40.2191 29.9113 40.3169 30.1589C40.4407 30.472 40.6078 30.7939 40.812 31.1132C40.8281 31.138 40.8442 31.1615 40.8615 31.185C41.0175 31.4004 40.9705 31.7024 40.7538 31.8584C40.6858 31.9079 40.6103 31.9364 40.5323 31.9463L40.5335 31.9488ZM91.9446 25.0752C91.7081 25.1049 91.4804 24.9564 91.4173 24.72C91.3492 24.4625 91.5027 24.1988 91.7601 24.1308C92.1748 24.0206 92.5895 23.9104 93.0041 23.8003C93.2628 23.731 93.5252 23.8844 93.5946 24.1419C93.6639 24.3994 93.5104 24.663 93.2529 24.7323C92.8383 24.8437 92.4224 24.9539 92.0077 25.0641C91.9867 25.069 91.9656 25.074 91.9446 25.0765V25.0752ZM94.435 24.4105C94.1998 24.4402 93.9721 24.2929 93.909 24.0577C93.8396 23.8003 93.9919 23.5354 94.2494 23.4661C94.6653 23.3547 95.0799 23.242 95.4958 23.1294C95.7545 23.0601 96.0182 23.2123 96.0875 23.4685C96.1568 23.726 96.0058 23.9909 95.7483 24.0602C95.3324 24.1728 94.9165 24.2855 94.5006 24.3969C94.4796 24.4031 94.4573 24.4068 94.4363 24.4093L94.435 24.4105ZM96.923 23.7371C96.6878 23.7669 96.4613 23.6208 96.397 23.3856C96.3264 23.1281 96.4786 22.8633 96.7349 22.7939C97.1483 22.6813 97.5617 22.5687 97.9752 22.4548C98.2314 22.3842 98.4975 22.5352 98.5681 22.7927C98.6386 23.0502 98.4876 23.315 98.2302 23.3856C97.8167 23.4995 97.4021 23.6121 96.9886 23.7248C96.9663 23.731 96.9441 23.7347 96.923 23.7384V23.7371ZM99.4048 23.0564C99.1709 23.0861 98.9444 22.94 98.8788 22.706C98.8082 22.4498 98.958 22.1837 99.2154 22.1131C99.6289 21.9993 100.042 21.8841 100.454 21.7703C100.711 21.6997 100.977 21.8495 101.049 22.1057C101.119 22.3619 100.969 22.6281 100.713 22.6999C100.3 22.815 99.8863 22.9289 99.4729 23.044C99.4506 23.0502 99.4283 23.0551 99.4048 23.0576V23.0564ZM101.885 22.3681C101.651 22.3978 101.425 22.253 101.361 22.0191C101.289 21.7628 101.439 21.4967 101.695 21.4249C102.108 21.3098 102.522 21.1935 102.934 21.0783C103.19 21.0065 103.456 21.1563 103.528 21.4125C103.6 21.6688 103.45 21.9349 103.194 22.0067C102.782 22.123 102.368 22.2382 101.953 22.3533C101.93 22.3595 101.908 22.3644 101.884 22.3669L101.885 22.3681ZM104.363 21.6725C104.131 21.7022 103.904 21.5574 103.839 21.3247C103.767 21.0684 103.915 20.8023 104.172 20.7293C104.585 20.6129 104.997 20.4953 105.409 20.379C105.666 20.3059 105.932 20.4557 106.005 20.7107C106.078 20.9669 105.929 21.2331 105.673 21.3061C105.261 21.4224 104.849 21.54 104.434 21.6564C104.411 21.6626 104.387 21.6675 104.363 21.6712V21.6725ZM106.839 20.9694C106.606 20.9991 106.381 20.8555 106.314 20.6228C106.241 20.3666 106.39 20.1005 106.646 20.0262C107.059 19.9086 107.472 19.791 107.883 19.6722C108.138 19.5992 108.406 19.7465 108.479 20.0027C108.552 20.2589 108.405 20.5263 108.149 20.5993C107.737 20.7169 107.324 20.8357 106.911 20.9533C106.887 20.9595 106.863 20.9645 106.839 20.9682V20.9694ZM39.6274 29.5709C39.6274 29.5709 39.6151 29.5722 39.6101 29.5734C39.3452 29.5969 39.11 29.4026 39.0865 29.1365C39.0432 28.6624 39.0754 28.1871 39.1831 27.7204C39.2425 27.4605 39.5012 27.2983 39.7611 27.359C40.0211 27.4184 40.1832 27.6771 40.1226 27.937C40.0384 28.3034 40.0124 28.6772 40.0458 29.0486C40.0693 29.3073 39.8837 29.5375 39.6274 29.5709ZM109.313 20.2601C109.082 20.2899 108.857 20.1475 108.79 19.9148C108.716 19.6586 108.864 19.3912 109.12 19.3182C109.534 19.1993 109.946 19.0805 110.356 18.9617C110.613 18.8874 110.879 19.0347 110.954 19.2909C111.028 19.5472 110.881 19.8145 110.624 19.8888C110.213 20.0076 109.801 20.1265 109.388 20.2453C109.363 20.2527 109.339 20.2577 109.315 20.2601H109.313ZM111.787 19.5447C111.555 19.5744 111.33 19.4321 111.263 19.2006C111.189 18.9444 111.336 18.677 111.591 18.6027C112.004 18.4827 112.417 18.3626 112.826 18.2425C113.083 18.1683 113.35 18.3143 113.424 18.5705C113.498 18.8268 113.352 19.0941 113.096 19.1684C112.685 19.2885 112.273 19.4085 111.86 19.5286C111.835 19.536 111.81 19.541 111.785 19.5435L111.787 19.5447ZM114.257 18.8231C114.026 18.8528 113.802 18.7104 113.734 18.4802C113.659 18.2252 113.805 17.9566 114.06 17.8823C114.474 17.761 114.885 17.6397 115.295 17.5196C115.551 17.4441 115.818 17.5902 115.894 17.8464C115.969 18.1014 115.823 18.37 115.567 18.4455C115.157 18.5668 114.745 18.6869 114.332 18.8082C114.307 18.8156 114.282 18.8206 114.256 18.8243L114.257 18.8231ZM116.727 18.0965C116.496 18.1262 116.271 17.9851 116.203 17.7548C116.128 17.4998 116.274 17.2312 116.529 17.1557C116.942 17.0332 117.353 16.9119 117.763 16.7906C118.018 16.7151 118.286 16.8599 118.362 17.1161C118.437 17.3711 118.293 17.6397 118.036 17.7152C117.627 17.8365 117.216 17.9591 116.802 18.0816C116.777 18.089 116.751 18.094 116.725 18.0977L116.727 18.0965ZM119.195 17.3637C118.965 17.3934 118.741 17.2523 118.673 17.0233C118.597 16.7683 118.742 16.4997 118.997 16.4229C119.41 16.2992 119.821 16.1766 120.23 16.0541C120.485 15.9773 120.753 16.1222 120.83 16.3784C120.907 16.6334 120.762 16.902 120.506 16.9787C120.097 17.1013 119.686 17.2238 119.272 17.3476C119.246 17.355 119.22 17.3612 119.195 17.3637ZM40.1733 27.1238C40.0755 27.1362 39.974 27.1188 39.8812 27.0681C39.6472 26.9406 39.5618 26.6472 39.6893 26.4133C39.8973 26.0333 40.1597 25.6533 40.4704 25.2832C40.6412 25.0789 40.9457 25.0529 41.1499 25.2238C41.3542 25.3946 41.3802 25.6991 41.2094 25.9033C40.9395 26.2251 40.713 26.5519 40.536 26.875C40.4592 27.0161 40.3218 27.1027 40.1733 27.1225V27.1238ZM121.662 16.6259C121.432 16.6557 121.208 16.5158 121.139 16.2868C121.063 16.0318 121.208 15.7632 121.463 15.6865C121.876 15.5627 122.287 15.4389 122.694 15.3151C122.949 15.2384 123.218 15.382 123.296 15.6369C123.372 15.8919 123.228 16.1618 122.973 16.2385C122.564 16.3611 122.153 16.4848 121.74 16.6099C121.714 16.6173 121.688 16.6235 121.662 16.6259ZM124.126 15.882C123.897 15.9117 123.673 15.7719 123.604 15.5429C123.527 15.2879 123.671 15.0193 123.926 14.9413C124.34 14.8163 124.75 14.6913 125.157 14.5675C125.412 14.4907 125.681 14.6343 125.759 14.8893C125.837 15.1443 125.692 15.4129 125.438 15.4909C125.031 15.6147 124.62 15.7397 124.206 15.8647C124.18 15.8721 124.152 15.8783 124.126 15.882ZM126.59 15.1332C126.361 15.1629 126.138 15.023 126.067 14.7952C125.989 14.5402 126.133 14.2716 126.388 14.1937C126.802 14.0674 127.212 13.9424 127.618 13.8174C127.872 13.7394 128.143 13.883 128.221 14.138C128.299 14.3929 128.155 14.6628 127.902 14.7408C127.496 14.8658 127.085 14.9908 126.67 15.1171C126.644 15.1257 126.617 15.1307 126.59 15.1344V15.1332ZM129.052 14.3793C128.823 14.409 128.6 14.2704 128.53 14.0426C128.452 13.7877 128.595 13.5178 128.85 13.4398C129.264 13.3123 129.675 13.1861 130.08 13.0611C130.335 12.9831 130.605 13.1254 130.683 13.3792C130.761 13.6342 130.619 13.904 130.364 13.982C129.959 14.107 129.548 14.2333 129.133 14.3608C129.106 14.3694 129.079 14.3744 129.053 14.3781L129.052 14.3793ZM41.7973 25.1532C41.6463 25.173 41.4879 25.1198 41.3777 24.9972C41.1995 24.7992 41.2155 24.4947 41.4136 24.3164C41.7255 24.0355 42.0746 23.752 42.4496 23.476C42.6638 23.3175 42.9658 23.3633 43.1242 23.5787C43.2827 23.7928 43.2369 24.0949 43.0215 24.2533C42.6724 24.5108 42.3481 24.7732 42.0597 25.0331C41.9842 25.1012 41.8926 25.1408 41.7986 25.1532H41.7973ZM131.512 13.6206C131.285 13.6503 131.062 13.5116 130.991 13.2851C130.912 13.0314 131.056 12.7603 131.309 12.6823C131.725 12.5536 132.135 12.4261 132.538 12.301C132.792 12.2231 133.063 12.3642 133.142 12.6179C133.222 12.8729 133.079 13.1428 132.824 13.222C132.421 13.347 132.01 13.4745 131.594 13.6032C131.567 13.6119 131.54 13.6181 131.512 13.6206ZM133.972 12.8568C133.744 12.8865 133.521 12.7491 133.451 12.5214C133.371 12.2676 133.514 11.9966 133.768 11.9173C134.185 11.7874 134.594 11.6599 134.997 11.5336C135.252 11.4544 135.522 11.5955 135.601 11.8493C135.68 12.103 135.539 12.3741 135.284 12.4533C134.882 12.5796 134.472 12.7071 134.055 12.837C134.028 12.8457 133.999 12.8519 133.972 12.8556V12.8568ZM136.43 12.0881C136.202 12.1179 135.981 11.9805 135.909 11.7539C135.83 11.5002 135.971 11.2291 136.225 11.1499C136.644 11.0187 137.054 10.89 137.453 10.7637C137.706 10.6832 137.977 10.8243 138.058 11.0793C138.138 11.3331 137.997 11.6042 137.742 11.6846C137.342 11.8109 136.933 11.9396 136.513 12.0708C136.486 12.0795 136.457 12.0857 136.429 12.0894L136.43 12.0881ZM43.862 23.6208C43.6813 23.6443 43.4956 23.5639 43.3928 23.3992C43.2505 23.1739 43.3186 22.8756 43.5439 22.7345C43.8991 22.5117 44.2803 22.2864 44.6777 22.0673C44.9104 21.9386 45.2038 22.0228 45.3337 22.2567C45.4625 22.4894 45.3783 22.7828 45.1443 22.9115C44.7631 23.122 44.3979 23.3373 44.0575 23.5502C43.9969 23.5886 43.9301 23.6121 43.862 23.6208ZM138.887 11.3133C138.661 11.3418 138.438 11.2056 138.367 10.9803C138.287 10.7266 138.428 10.4555 138.682 10.375C139.104 10.2413 139.513 10.1114 139.91 9.98635C140.163 9.90589 140.434 10.0458 140.515 10.2995C140.595 10.5533 140.455 10.8243 140.202 10.9048C139.806 11.0311 139.396 11.161 138.973 11.2947C138.944 11.3034 138.916 11.3096 138.887 11.3133ZM141.344 10.5335C141.118 10.5619 140.896 10.427 140.824 10.2017C140.744 9.94798 140.884 9.6769 141.137 9.59521C141.567 9.45781 141.977 9.32784 142.365 9.20282C142.619 9.12113 142.89 9.26099 142.972 9.51474C143.054 9.7685 142.914 10.0396 142.66 10.1213C142.271 10.2463 141.862 10.3763 141.431 10.5137C141.402 10.5223 141.374 10.5285 141.345 10.5322L141.344 10.5335ZM46.1135 22.3706C45.9155 22.3966 45.7137 22.2951 45.6197 22.1057C45.5021 21.8668 45.5999 21.5772 45.8375 21.4596C46.2138 21.2727 46.6111 21.0858 47.0196 20.9026C47.2622 20.7936 47.5482 20.9026 47.6571 21.1439C47.766 21.3865 47.6571 21.6725 47.4157 21.7814C47.0184 21.9597 46.6322 22.1429 46.2658 22.3236C46.2163 22.3483 46.1643 22.3632 46.1135 22.3694V22.3706ZM143.8 9.74621C143.573 9.77468 143.352 9.63977 143.28 9.41572C143.198 9.16197 143.338 8.8909 143.592 8.8092C144.04 8.66562 144.45 8.53317 144.82 8.4131C145.074 8.33141 145.345 8.47004 145.428 8.72379C145.509 8.97754 145.371 9.24862 145.117 9.33155C144.747 9.45162 144.336 9.58407 143.887 9.72765C143.858 9.73755 143.828 9.74374 143.8 9.74745V9.74621ZM146.26 8.95154C146.034 8.98001 145.813 8.84633 145.74 8.62229C145.657 8.36854 145.795 8.09622 146.049 8.01452C146.808 7.7682 147.213 7.63452 147.213 7.63452C147.465 7.55158 147.739 7.68899 147.822 7.9415C147.905 8.19401 147.767 8.46756 147.515 8.5505C147.515 8.5505 147.109 8.68418 146.347 8.93174C146.318 8.94165 146.288 8.94783 146.26 8.95154ZM48.4617 21.311C48.2512 21.3383 48.0396 21.2219 47.9554 21.0164C47.8539 20.7701 47.9703 20.4879 48.2166 20.3864C48.6052 20.2255 49.0125 20.0646 49.4259 19.9061C49.6747 19.8108 49.9532 19.9358 50.0485 20.1846C50.1438 20.4334 50.0188 20.7119 49.77 20.8073C49.364 20.962 48.9654 21.1204 48.5842 21.2789C48.5434 21.295 48.5025 21.3061 48.4604 21.311H48.4617ZM50.868 20.3889C50.6476 20.4173 50.431 20.2899 50.353 20.072C50.2639 19.8207 50.3939 19.5459 50.6452 19.4556C51.0437 19.3132 51.4559 19.1709 51.8731 19.0322C52.1268 18.9468 52.3991 19.0842 52.4833 19.3367C52.5675 19.5893 52.4313 19.8628 52.1788 19.947C51.7678 20.0844 51.3606 20.2242 50.9695 20.3641C50.936 20.3765 50.9026 20.3839 50.868 20.3889ZM53.3139 19.5719C53.0861 19.6004 52.8645 19.4642 52.7927 19.2377C52.7135 18.984 52.8546 18.7129 53.1084 18.6337C53.5119 18.5074 53.9291 18.3799 54.3499 18.2561C54.6049 18.1806 54.8735 18.3267 54.949 18.5817C55.0245 18.8367 54.8785 19.1053 54.6235 19.1808C54.2088 19.3033 53.7966 19.4296 53.398 19.5546C53.3708 19.5633 53.3423 19.5694 53.3139 19.5732V19.5719ZM55.7858 18.8404C55.5518 18.8701 55.3253 18.7253 55.2609 18.4913C55.1891 18.2351 55.3389 17.969 55.5951 17.8972C56.0061 17.7821 56.4269 17.6682 56.8466 17.5568C57.104 17.4887 57.3677 17.6422 57.4358 17.8997C57.5038 18.1571 57.3504 18.4208 57.0929 18.4888C56.6782 18.599 56.2623 18.7117 55.8551 18.8255C55.8316 18.8317 55.8093 18.8367 55.7858 18.8391V18.8404ZM58.2799 18.1806C58.041 18.2116 57.8108 18.0593 57.7514 17.8192C57.687 17.5605 57.8442 17.2993 58.1017 17.2337C58.5151 17.1297 58.9397 17.027 59.3605 16.9267C59.6205 16.8661 59.8792 17.0258 59.9411 17.2845C60.003 17.5432 59.8421 17.8031 59.5834 17.865C59.1662 17.964 58.7454 18.0668 58.3356 18.1683C58.3171 18.1732 58.2985 18.1769 58.2799 18.1794V18.1806ZM60.7915 17.5852C60.5476 17.6162 60.3149 17.4577 60.2604 17.2127C60.2023 16.9527 60.3656 16.6953 60.6256 16.6371C61.0477 16.5418 61.4747 16.4502 61.8931 16.3611C62.1543 16.3054 62.4093 16.4725 62.465 16.7336C62.5194 16.9948 62.3536 17.2498 62.0924 17.3055C61.6777 17.3934 61.2556 17.485 60.836 17.5791C60.8212 17.5828 60.8063 17.5852 60.7915 17.5865V17.5852ZM63.3191 17.053C63.069 17.0852 62.8338 16.9181 62.7856 16.668C62.7348 16.4069 62.9044 16.1531 63.1656 16.1024C63.9714 15.9439 64.4356 15.8647 64.4541 15.861C64.7128 15.8152 64.9653 15.9922 65.0111 16.2558C65.0557 16.5183 64.8799 16.7671 64.6175 16.8129C64.6126 16.8129 64.1447 16.8933 63.3525 17.0493C63.3413 17.0517 63.3314 17.053 63.3203 17.0542L63.3191 17.053Z" fill="#A8D29F"/>
<path d="M153.038 15.4432L169.844 2.85352L153.438 5.94679L155.071 8.57589L152.141 12.7956L153.038 15.4432Z" fill="#1E9B62"/>
<path d="M169.844 2.85352L151.3 8.76404L138.699 20.1407L169.844 2.85352Z" fill="#32CC86"/>
<path d="M153.438 5.94643L169.844 2.85315L151.903 0L153.438 5.94643Z" fill="#32CC86"/>
<path d="M83.6626 88.8096H124.601C125.637 88.8096 126.477 89.6513 126.477 90.6861V97.905C126.477 98.941 125.637 99.7815 124.601 99.7815H83.6626C82.6266 99.7815 81.7861 98.941 81.7861 97.905V90.6861C81.7861 89.65 82.6266 88.8096 83.6626 88.8096Z" fill="#32CC86"/>
<path d="M89.6229 91.8174C89.6749 91.8174 89.7194 91.8359 89.7578 91.8743C89.7949 91.9127 89.8147 91.9573 89.8147 92.0092V92.5118C89.8147 92.5638 89.7962 92.6083 89.7578 92.6467C89.7194 92.6851 89.6749 92.7037 89.6229 92.7037H88.3479V96.5854C88.3479 96.6374 88.3294 96.682 88.291 96.7203C88.2526 96.7587 88.2081 96.7773 88.1561 96.7773H87.583C87.531 96.7773 87.4864 96.7587 87.4481 96.7203C87.4097 96.6832 87.3911 96.6374 87.3911 96.5854V92.7037H86.1162C86.0642 92.7037 86.0196 92.6851 85.9813 92.6467C85.9429 92.6096 85.9243 92.5638 85.9243 92.5118V92.0092C85.9243 91.9573 85.9429 91.9127 85.9813 91.8743C86.0184 91.8372 86.0642 91.8174 86.1162 91.8174H89.6216H89.6229Z" fill="black"/>
<path d="M92.5416 91.8174C93.132 91.8174 93.5801 91.9548 93.8871 92.2283C94.1941 92.5019 94.3475 92.8819 94.3475 93.3684C94.3475 93.7137 94.2683 94.0071 94.1099 94.2497C93.9514 94.4923 93.7187 94.673 93.4118 94.7918L94.3896 96.5409C94.4032 96.5693 94.4107 96.5953 94.4107 96.6188C94.4107 96.6609 94.3958 96.698 94.3649 96.729C94.3339 96.7599 94.298 96.7748 94.2547 96.7748H93.6531C93.5591 96.7748 93.4885 96.7525 93.4439 96.708C93.3994 96.6634 93.3672 96.6213 93.3486 96.5842L92.4203 94.9342H91.4783V96.5842C91.4783 96.6362 91.4597 96.6807 91.4214 96.7191C91.383 96.7575 91.3384 96.776 91.2864 96.776H90.7133C90.6614 96.776 90.6168 96.7575 90.5784 96.7191C90.54 96.682 90.5215 96.6362 90.5215 96.5842V92.0092C90.5215 91.9573 90.54 91.9127 90.5784 91.8743C90.6156 91.8372 90.6614 91.8174 90.7133 91.8174H92.5403H92.5416ZM91.4795 94.0479H92.5069C92.7755 94.0479 92.9909 94.0009 93.1518 93.9068C93.3127 93.8127 93.3932 93.6332 93.3932 93.3684C93.3932 93.1035 93.3127 92.9265 93.1518 92.8373C92.9909 92.7482 92.7768 92.7024 92.5069 92.7024H91.4795V94.0479Z" fill="black"/>
<path d="M97.5979 91.8174C97.6734 91.8174 97.7303 91.8372 97.7675 91.878C97.8046 91.9189 97.838 91.9783 97.8665 92.0587L99.6019 96.5347C99.6069 96.5495 99.6093 96.5656 99.6093 96.5842C99.6093 96.6362 99.5908 96.6807 99.5524 96.7191C99.514 96.7575 99.4695 96.776 99.4175 96.776H98.9075C98.8134 96.776 98.7466 96.7562 98.7094 96.7154C98.6711 96.6758 98.6463 96.6362 98.6315 96.599L98.327 95.813H96.089L95.7845 96.599C95.7709 96.6362 95.7449 96.6758 95.7065 96.7154C95.6682 96.755 95.6026 96.776 95.5085 96.776H94.9985C94.9465 96.776 94.9019 96.7575 94.8636 96.7191C94.8252 96.682 94.8066 96.6362 94.8066 96.5842C94.8066 96.5656 94.8091 96.5483 94.8141 96.5347L96.5495 92.0587C96.5779 91.9783 96.6114 91.9189 96.6485 91.878C96.6856 91.8384 96.7426 91.8174 96.8181 91.8174H97.5967H97.5979ZM97.9878 94.9268L97.2092 92.9079L96.4306 94.9268H97.989H97.9878Z" fill="black"/>
<path d="M103.47 96.7748C103.39 96.7748 103.329 96.7538 103.286 96.7117C103.244 96.6696 103.213 96.6362 103.194 96.6126L101.211 93.6667V96.5842C101.211 96.6362 101.193 96.6807 101.155 96.7191C101.116 96.7575 101.072 96.776 101.02 96.776H100.445C100.393 96.776 100.349 96.7575 100.31 96.7191C100.272 96.682 100.253 96.6362 100.253 96.5842V92.0092C100.253 91.9573 100.272 91.9127 100.31 91.8743C100.347 91.8372 100.393 91.8174 100.445 91.8174H100.942C101.022 91.8174 101.083 91.8384 101.126 91.8818C101.168 91.9238 101.199 91.9572 101.218 91.9808L103.201 94.9268V92.0092C103.201 91.9573 103.219 91.9127 103.258 91.8743C103.295 91.8372 103.341 91.8174 103.392 91.8174H103.966C104.018 91.8174 104.062 91.8359 104.101 91.8743C104.138 91.9127 104.157 91.9573 104.157 92.0092V96.5842C104.157 96.6362 104.139 96.6807 104.101 96.7191C104.062 96.7575 104.018 96.776 103.966 96.776H103.469L103.47 96.7748Z" fill="black"/>
<path d="M106.962 91.7471C107.279 91.7471 107.558 91.7892 107.798 91.8746C108.038 91.96 108.24 92.0652 108.399 92.1939C108.56 92.3214 108.682 92.4625 108.765 92.6148C108.848 92.7683 108.893 92.9131 108.903 93.0505C108.908 93.1074 108.89 93.1532 108.85 93.1891C108.81 93.225 108.763 93.2424 108.711 93.2424H108.215C108.135 93.2424 108.074 93.2275 108.034 93.1966C107.995 93.1656 107.958 93.1248 107.924 93.0728C107.854 92.9552 107.746 92.8524 107.602 92.7646C107.459 92.6767 107.245 92.6333 106.961 92.6333C106.839 92.6333 106.721 92.647 106.611 92.673C106.499 92.699 106.403 92.7361 106.32 92.7856C106.237 92.8351 106.173 92.8958 106.126 92.9663C106.079 93.0369 106.055 93.1173 106.055 93.2077C106.055 93.3166 106.077 93.4045 106.122 93.4738C106.166 93.5419 106.242 93.6013 106.348 93.6508C106.455 93.7003 106.595 93.7461 106.769 93.7895C106.944 93.8315 107.162 93.8811 107.42 93.938C107.704 93.9999 107.948 94.0717 108.153 94.1546C108.359 94.2375 108.526 94.3366 108.656 94.4517C108.786 94.5668 108.882 94.7005 108.947 94.8515C109.011 95.0025 109.042 95.1746 109.042 95.3689C109.042 95.5818 108.995 95.7786 108.901 95.9606C108.807 96.1425 108.672 96.2985 108.497 96.4285C108.323 96.5584 108.107 96.6612 107.852 96.7367C107.597 96.8122 107.311 96.8506 106.996 96.8506C106.731 96.8506 106.478 96.8184 106.238 96.7552C105.997 96.6921 105.784 96.5993 105.597 96.4792C105.41 96.3591 105.26 96.2131 105.148 96.0435C105.034 95.8739 104.971 95.6845 104.956 95.4766C104.951 95.4196 104.968 95.3738 105.009 95.3379C105.049 95.3021 105.096 95.2847 105.148 95.2847H105.643C105.723 95.2847 105.784 95.2996 105.827 95.3268C105.869 95.3553 105.905 95.3974 105.934 95.4543C105.967 95.5162 106.007 95.5769 106.054 95.6387C106.101 95.7006 106.165 95.7539 106.244 95.8021C106.325 95.8492 106.425 95.8888 106.545 95.9185C106.665 95.9494 106.815 95.9643 106.995 95.9643C107.136 95.9643 107.273 95.9544 107.406 95.9321C107.538 95.9111 107.653 95.8752 107.752 95.8257C107.851 95.7761 107.932 95.7143 107.993 95.6412C108.055 95.5682 108.085 95.4766 108.085 95.3689C108.085 95.2612 108.052 95.1795 107.986 95.1139C107.92 95.0483 107.82 94.9914 107.685 94.9443C107.55 94.8973 107.384 94.8527 107.186 94.8094C106.988 94.7673 106.759 94.7129 106.499 94.646C106.263 94.5891 106.056 94.5222 105.879 94.4443C105.702 94.3663 105.556 94.271 105.44 94.1571C105.324 94.0445 105.238 93.9108 105.181 93.7573C105.124 93.6038 105.096 93.4206 105.096 93.2089C105.096 92.9973 105.143 92.8005 105.237 92.621C105.331 92.4415 105.461 92.288 105.627 92.1605C105.793 92.033 105.989 91.9327 106.218 91.8597C106.447 91.7867 106.694 91.7495 106.959 91.7495L106.962 91.7471Z" fill="black"/>
<path d="M113.067 91.8174C113.119 91.8174 113.163 91.8359 113.202 91.8743C113.24 91.9127 113.259 91.9573 113.259 92.0092V92.5118C113.259 92.5638 113.24 92.6083 113.202 92.6467C113.163 92.6851 113.119 92.7037 113.067 92.7037H110.808V94.0776H112.926C112.978 94.0776 113.022 94.0962 113.06 94.1346C113.098 94.1729 113.117 94.2175 113.117 94.2695V94.772C113.117 94.824 113.099 94.8686 113.06 94.9069C113.022 94.9441 112.978 94.9639 112.926 94.9639H110.808V96.5854C110.808 96.6374 110.789 96.682 110.751 96.7203C110.712 96.7587 110.668 96.7773 110.616 96.7773H110.041C109.989 96.7773 109.945 96.7587 109.907 96.7203C109.868 96.6832 109.85 96.6374 109.85 96.5854V92.0105C109.85 91.9585 109.868 91.9139 109.907 91.8756C109.945 91.8372 109.989 91.8186 110.041 91.8186H113.065L113.067 91.8174Z" fill="black"/>
<path d="M117.379 95.8898C117.431 95.8898 117.476 95.9083 117.514 95.9467C117.551 95.9851 117.571 96.0296 117.571 96.0816V96.5842C117.571 96.6362 117.553 96.6807 117.514 96.7191C117.476 96.7575 117.431 96.776 117.379 96.776H114.27C114.218 96.776 114.173 96.7575 114.135 96.7191C114.097 96.682 114.078 96.6362 114.078 96.5842V92.0092C114.078 91.9573 114.097 91.9127 114.135 91.8743C114.172 91.8372 114.218 91.8174 114.27 91.8174H117.322C117.374 91.8174 117.419 91.8359 117.457 91.8743C117.494 91.9127 117.514 91.9573 117.514 92.0092V92.5118C117.514 92.5638 117.496 92.6083 117.457 92.6467C117.419 92.6851 117.374 92.7037 117.322 92.7037H115.035V93.8301H117.166C117.218 93.8301 117.263 93.8486 117.301 93.887C117.339 93.9241 117.358 93.9699 117.358 94.0219V94.5245C117.358 94.5765 117.34 94.621 117.301 94.6594C117.263 94.6978 117.218 94.7163 117.166 94.7163H115.035V95.8922H117.379V95.8898Z" fill="black"/>
<path d="M120.468 91.8174C121.058 91.8174 121.506 91.9548 121.813 92.2283C122.12 92.5019 122.274 92.8819 122.274 93.3684C122.274 93.7137 122.195 94.0071 122.036 94.2497C121.878 94.4923 121.645 94.673 121.338 94.7918L122.316 96.5409C122.33 96.5693 122.337 96.5953 122.337 96.6188C122.337 96.6609 122.322 96.698 122.291 96.729C122.26 96.7599 122.224 96.7748 122.181 96.7748H121.579C121.485 96.7748 121.415 96.7525 121.37 96.708C121.326 96.6634 121.293 96.6213 121.275 96.5842L120.347 94.9342H119.405V96.5842C119.405 96.6362 119.386 96.6807 119.348 96.7191C119.309 96.7575 119.265 96.776 119.213 96.776H118.64C118.588 96.776 118.543 96.7575 118.505 96.7191C118.466 96.682 118.448 96.6362 118.448 96.5842V92.0092C118.448 91.9573 118.466 91.9127 118.505 91.8743C118.542 91.8372 118.588 91.8174 118.64 91.8174H120.467H120.468ZM119.406 94.0479H120.433C120.702 94.0479 120.917 94.0009 121.078 93.9068C121.239 93.8127 121.319 93.6332 121.319 93.3684C121.319 93.1035 121.239 92.9265 121.078 92.8373C120.917 92.7482 120.703 92.7024 120.433 92.7024H119.406V94.0479Z" fill="black"/>
</svg>
